<svg width="24" height="24" viewBox="0 0 24 24" fill="none" xmlns="http://www.w3.org/2000/svg">
<path fill-rule="evenodd" clip-rule="evenodd" d="M12.9121 2.006C12.8121 2.019 12.7111 2.058 12.6191 2.125C12.0501 2.543 11.4061 3.103 10.9041 3.692C9.72108 5.083 9.24808 7.99 9.78408 10.351C9.86308 10.697 9.47008 10.951 9.18408 10.742C8.87608 10.518 8.61408 10.234 8.39008 9.924C8.01008 9.394 7.74608 8.786 7.56608 8.252C7.36908 7.667 6.60308 7.531 6.22208 8.017C6.14308 8.118 6.06608 8.219 5.99208 8.321C5.60908 8.842 5.28508 9.368 5.01808 9.9C3.90008 12.116 3.75108 14.413 4.33608 16.688C5.89508 22.757 12.4901 22.757 12.4901 22.757C12.4901 22.757 18.6221 22.881 20.5781 17.206C21.7171 13.9 19.4051 11.144 18.1791 10.23L18.1811 10.232C17.2921 9.567 15.4371 8.325 14.6851 7.386C13.6101 6.046 13.5541 4.01 13.6441 2.697C13.6701 2.294 13.3451 2 12.9951 2C12.9671 2 12.9401 2.002 12.9121 2.006ZM11.5671 14.877C11.8411 14.812 12.1031 14.687 12.1231 14.209C12.1591 13.283 12.2721 12.665 12.4001 12.208C12.4881 11.887 12.9121 11.805 13.1051 12.074C13.5641 12.709 14.3511 13.143 14.8931 13.401C15.6451 13.804 15.9181 14.456 16.0091 14.977C16.0911 15.448 16.0091 16.132 15.8121 16.567C14.8501 18.684 12.4431 18.5 12.4431 18.5C9.64408 18.457 9.08408 16.178 8.98708 15.011C8.95908 14.674 9.30008 14.428 9.60908 14.564C10.0131 14.743 10.5641 14.929 11.1031 14.929C11.2601 14.929 11.4161 14.913 11.5671 14.877Z" fill="url(#paint0_linear_67_2505)"/>
<defs>
<linearGradient id="paint0_linear_67_2505" x1="13" y1="2" x2="13" y2="23" gradientUnits="userSpaceOnUse">
<stop stop-color="#F65923"/>
<stop offset="1" stop-color="#B1381A"/>
</linearGradient>
</defs>
</svg>
