<svg width="18" height="20" viewBox="0 0 18 20" fill="none" xmlns="http://www.w3.org/2000/svg">
<path fill-rule="evenodd" clip-rule="evenodd" d="M7.28928 0.842L5.76228 3.025C5.45828 3.459 4.97728 3.738 4.44828 3.786L1.79628 4.025C0.435278 4.149 -0.391722 5.587 0.187278 6.824L1.31428 9.237C1.53928 9.719 1.54028 10.274 1.31628 10.757L0.198278 13.173C-0.375722 14.414 0.455278 15.848 1.81828 15.967L4.47128 16.197C5.00028 16.243 5.48128 16.52 5.78728 16.954L7.32028 19.132C8.10828 20.25 9.76628 20.247 10.5503 19.127L12.0763 16.943C12.3803 16.508 12.8613 16.229 13.3893 16.182L16.0413 15.941C17.4033 15.818 18.2293 14.382 17.6513 13.142L16.5253 10.729C16.3003 10.249 16.2993 9.693 16.5223 9.21L17.6403 6.794C18.2143 5.553 17.3823 4.119 16.0213 4.001L13.3673 3.771C12.8383 3.725 12.3583 3.448 12.0523 3.014L10.5173 0.836C10.1243 0.278 9.51528 0 8.90528 0C8.29328 0 7.68128 0.281 7.28928 0.842ZM8.30828 13.479L7.72228 12.647C7.60628 12.482 7.42128 12.376 7.22028 12.358L6.20528 12.27C5.68428 12.225 5.36728 11.676 5.58628 11.202L6.01328 10.279C6.09928 10.094 6.09828 9.883 6.01328 9.698L5.58228 8.776C5.36128 8.303 5.67728 7.753 6.19728 7.706L7.21128 7.616C7.41328 7.597 7.59728 7.49 7.71328 7.324L8.29628 6.49C8.59528 6.062 9.22928 6.06 9.53028 6.488L10.1163 7.32C10.2333 7.486 10.4173 7.591 10.6193 7.609L11.6333 7.697C12.1533 7.742 12.4713 8.291 12.2513 8.765L11.8243 9.688C11.7393 9.873 11.7393 10.084 11.8253 10.269L12.2563 11.19C12.4763 11.664 12.1613 12.214 11.6413 12.26L10.6273 12.352C10.4243 12.37 10.2423 12.476 10.1263 12.643L9.54228 13.477C9.39228 13.692 9.15828 13.799 8.92528 13.799C8.69228 13.799 8.45928 13.692 8.30828 13.479Z" fill="url(#paint0_linear_4183_7013)"/>
<defs>
<linearGradient id="paint0_linear_4183_7013" x1="8.99997" y1="28.5" x2="8.99997" y2="-1.39338e-06" gradientUnits="userSpaceOnUse">
<stop stop-color="#AAFF18"/>
<stop offset="1" stop-color="#44DD11"/>
</linearGradient>
</defs>
</svg>
